HIERARCHY
ROOT Hips
{
	OFFSET 0.000000 0.000000 0.000000
	CHANNELS 6 Xposition Yposition Zposition Zrotation Yrotation Xrotation 
	JOINT LHipJoint
	{
		OFFSET 0.000000 0.000000 0.000000
		CHANNELS 3 Zrotation Yrotation Xrotation
		JOINT LeftUpLeg
		{
			OFFSET 1.363060 -1.794630 0.839290
			CHANNELS 3 Zrotation Yrotation Xrotation
			JOINT LeftLeg
			{
				OFFSET 2.448110 -6.726130 0.000000
				CHANNELS 3 Zrotation Yrotation Xrotation
				JOINT LeftFoot
				{
					OFFSET 2.562200 -7.039590 0.000000
					CHANNELS 3 Zrotation Yrotation Xrotation
					JOINT LeftToeBase
					{
						OFFSET 0.157640 -0.433110 2.322550
						CHANNELS 3 Zrotation Yrotation Xrotation
						End Site
						{
							OFFSET 0.000000 0.000000 0.000000
						}
					}
				}
			}
		}
	}
	JOINT RHipJoint
	{
		OFFSET 0.000000 0.000000 0.000000
		CHANNELS 3 Zrotation Yrotation Xrotation
		JOINT RightUpLeg
		{
			OFFSET -1.305520 -1.794630 0.839290
			CHANNELS 3 Zrotation Yrotation Xrotation
			JOINT RightLeg
			{
				OFFSET -2.542530 -6.985550 0.000000
				CHANNELS 3 Zrotation Yrotation Xrotation
				JOINT RightFoot
				{
					OFFSET -2.568260 -7.056230 0.000000
					CHANNELS 3 Zrotation Yrotation Xrotation
					JOINT RightToeBase
					{
						OFFSET -0.164730 -0.452590 2.363150
						CHANNELS 3 Zrotation Yrotation Xrotation
						End Site
						{
							OFFSET 0.000000 0.000000 0.000000
						}
					}
				}
			}
		}
	}
}
MOTION
Frames: 25
Frame Time: 0.008333
-2.583012 15.794520 0.013341 1.465224 81.216662 33.312226 -8.259938 -1.754173 -0.337755 -11.618957 -2.515632 -72.109218 -2.406928 3.273690 40.194021 0.424601 0.463069 -3.454286 0.284500 0.000000 -33.267100 10.593146 -0.438627 -5.610681 12.661333 -6.625466 -33.141788 0.624286 -4.367880 61.218372 0.137220 4.407822 -11.102761 -0.191500 -0.000000 -69.485000
-2.391610 15.749481 0.040867 0.578382 80.833971 32.183969 -8.312651 -1.824414 -0.441725 -11.174266 -2.329539 -72.252446 -2.142516 3.476700 42.531291 0.507282 0.872711 -3.557224 0.307200 -0.000001 -30.514400 10.706000 -0.444831 -5.544039 12.437079 -6.446042 -33.070694 0.311749 -4.434452 62.693410 0.146707 4.246535 -9.168942 -0.091300 0.000001 -71.273400
-2.204091 15.707002 0.070556 -0.054307 80.453701 31.326804 -8.354447 -1.891752 -0.559935 -10.833350 -2.120144 -72.367143 -1.910765 3.664095 44.817278 0.602185 1.318133 -3.960279 0.320200 0.000001 -28.029999 10.817720 -0.433903 -5.474556 12.222225 -6.228351 -33.132990 -0.013371 -4.502924 64.286869 0.121199 3.943792 -7.195330 0.017800 -0.000000 -72.243200
-2.020752 15.667862 0.102209 -0.476583 80.081387 30.694348 -8.386687 -1.954647 -0.689376 -10.582500 -1.897350 -72.426018 -1.712590 3.832907 46.996822 0.709778 1.806921 -4.653798 0.318300 0.000000 -26.004600 10.925358 -0.405428 -5.408007 12.028469 -5.983645 -33.318729 -0.342119 -4.572234 65.981023 0.055379 3.455579 -5.272287 0.115200 -0.000000 -72.347400
-1.841829 15.632678 0.135418 -0.740718 79.720208 30.230032 -8.411192 -2.011881 -0.827181 -10.403926 -1.669245 -72.405626 -1.546825 3.981410 49.029824 0.830351 2.342305 -5.609606 0.294800 -0.000000 -24.544600 11.026599 -0.359684 -5.350058 11.866914 -5.725989 -33.616804 -0.666140 -4.642345 67.758012 -0.052952 2.742103 -3.495415 0.174800 0.000000 -71.594999
-1.667309 15.601858 0.169681 -0.903634 79.370000 29.872446 -8.430224 -2.062523 -0.970239 -10.276555 -1.441740 -72.286967 -1.410800 4.108578 50.888209 0.963684 2.922928 -6.781936 0.243000 -0.000000 -23.682100 11.119762 -0.297664 -5.305652 11.747664 -5.470318 -34.015532 -0.978552 -4.713966 69.599269 -0.202966 1.774862 -1.958362 0.171100 -0.000000 -70.034400
-1.497006 15.575619 0.204428 -1.021399 79.028406 29.561958 -8.446316 -2.105963 -1.115298 -10.179149 -1.218041 -72.058552 -1.300881 4.214165 52.554926 1.108598 3.542955 -8.110428 0.157400 -0.000000 -23.391100 11.203778 -0.220969 -5.278407 11.678888 -5.230440 -34.504126 -1.274591 -4.788280 71.485508 -0.391479 0.542900 -0.743069 0.087301 0.000000 -67.742900
-1.330697 15.553968 0.239131 -1.141298 78.691337 29.248144 -8.461958 -2.142091 -1.259458 -10.092361 -0.998582 -71.715232 -1.212887 4.298614 54.022597 1.262617 4.192608 -9.525932 0.035700 0.000000 -23.600299 11.278210 -0.131382 -5.270407 11.665727 -5.018367 -35.075192 -1.551683 -4.866779 73.396540 -0.613667 -0.941716 0.090657 -0.078200 0.000000 -64.825700
-1.168014 15.536827 0.273274 -1.303896 78.354083 28.889839 -8.479553 -2.171003 -1.399709 -9.999453 -0.782006 -71.261024 -1.142364 4.363215 55.292796 1.422090 4.859730 -10.957936 -0.119900 0.000000 -24.200199 11.342801 -0.031014 -5.281614 11.710572 -4.841773 -35.723321 -1.808529 -4.950547 75.309128 -0.863169 -2.639943 0.504007 -0.307700 0.000000 -61.389900
-1.008542 15.523979 0.306483 -1.536382 78.011967 28.461214 -8.500979 -2.193117 -1.533593 -9.888279 -0.565558 -70.707470 -1.085055 4.410067 56.375404 1.582278 5.529701 -12.342243 -0.303501 0.000000 -25.055500 11.397536 0.077918 -5.310051 11.812915 -4.703954 -36.446665 -2.044639 -5.040316 77.198091 -1.132096 -4.486632 0.483606 -0.565600 -0.000000 -57.542900
-0.851924 15.515100 0.338564 -1.854307 77.661740 27.950102 -8.527552 -2.208994 -1.659253 -9.751775 -0.345367 -70.072324 -1.037228 4.441953 57.286976 1.738114 6.187466 -13.627370 -0.505600 0.000000 -26.025100 11.442382 0.192970 -5.352039 11.970055 -4.604043 -37.245511 -2.259616 -5.136260 79.036373 -1.410740 -6.394793 0.040209 -0.804700 0.000000 -53.385201
-0.697828 15.509892 0.369507 -2.259308 77.301713 27.359334 -8.559880 -2.219290 -1.775666 -9.588064 -0.116909 -69.377488 -0.996034 4.462101 58.048356 1.884661 6.817547 -14.777677 -0.715600 -0.000000 -26.985000 11.477210 0.311750 -5.402726 12.177228 -4.537676 -38.122221 -2.452830 -5.238022 80.796350 -1.687636 -8.264122 -0.791460 -0.975600 -0.000000 -49.011900
-0.545927 15.508017 0.399487 -2.741623 76.932302 26.703527 -8.597988 -2.224473 -1.882473 -9.400409 0.124527 -68.645602 -0.959796 4.473755 58.681360 2.017924 7.405897 -15.775931 -0.922800 0.000001 -27.844600 11.501644 0.431821 -5.456580 12.428520 -4.498560 -39.078999 -2.623150 -5.344636 82.450246 -1.950082 -9.992028 -1.954069 -1.038700 0.000000 -44.522400
-0.396042 15.509157 0.428864 -3.281978 76.556802 26.006113 -8.641307 -2.225167 -1.980598 -9.195672 0.383973 -67.897879 -0.927882 4.480083 59.208118 2.135139 7.940598 -16.621720 -1.119100 -0.000000 -28.557000 11.515076 0.551158 -5.508677 12.717769 -4.480179 -40.117493 -2.769096 -5.454864 83.972677 -2.185255 -11.485743 -3.370995 -0.973600 -0.000000 -40.027500
-0.247979 15.513052 0.458166 -3.854884 76.179730 25.296069 -8.688836 -2.221707 -2.071784 -8.983877 0.665725 -67.150508 -0.900902 4.483625 59.647013 2.235130 8.412896 -17.331267 -1.299600 -0.000000 -29.108500 11.516753 0.668149 -5.554736 13.038344 -4.476158 -41.236619 -2.889002 -5.567069 85.340148 -2.381576 -12.672504 -4.949302 -0.785000 0.000000 -35.658300
-0.101787 15.519420 0.487884 -4.434901 75.808510 24.597751 -8.739770 -2.214150 -2.157545 -8.774031 0.972405 -66.413854 -0.879769 4.486277 60.013492 2.318169 8.818735 -17.929240 -1.462600 0.000000 -29.526300 11.505518 0.781620 -5.592159 13.385902 -4.485091 -42.431260 -2.981492 -5.679274 86.531987 -2.530425 -13.509097 -6.583392 -0.502800 0.000000 -31.614100
0.042717 15.528087 0.518637 -4.995312 75.450370 23.938406 -8.792524 -2.202798 -2.241372 -8.576982 1.306185 -65.691929 -0.866588 4.489233 60.317091 2.385665 9.156449 -18.451298 -1.610500 -0.000000 -29.833900 11.480721 0.891385 -5.619709 13.754591 -4.502823 -43.694039 -3.046031 -5.789722 87.532690 -2.626531 -13.980577 -8.169854 -0.172800 0.000000 -28.054600
0.185335 15.538866 0.550884 -5.519212 75.113206 23.328575 -8.846398 -2.187476 -2.325420 -8.398017 1.666821 -64.980141 -0.862683 4.492782 60.563943 2.439816 9.429899 -18.928909 -1.746900 0.000001 -30.085000 11.441571 0.997214 -5.638461 14.142747 -4.533921 -45.011369 -3.083068 -5.896539 88.330243 -2.669806 -14.107452 -9.611311 0.153200 -0.000001 -25.188200
0.326258 15.551560 0.585050 -5.992293 74.803205 22.779214 -8.900244 -2.168139 -2.412350 -8.241930 2.052442 -64.271374 -0.869706 4.496666 60.755082 2.483074 9.644062 -19.392577 -1.876400 -0.000000 -30.319000 11.387879 1.099550 -5.649994 14.547804 -4.578964 -46.369529 -3.094184 -5.998221 88.919698 -2.664615 -13.935524 -10.837938 0.433500 0.000001 -23.118300
0.465453 15.566044 0.621360 -6.410338 74.524908 22.288224 -8.953551 -2.144686 -2.503859 -8.108260 2.459899 -63.553453 -0.888335 4.499986 60.888902 2.517779 9.806696 -19.861716 -2.002800 0.000000 -30.580400 11.319681 1.198672 -5.657289 14.969665 -4.642543 -47.752426 -3.081580 -6.093703 89.301627 -2.620335 -13.535618 -11.811724 0.643700 0.000001 -21.874300
0.603134 15.582163 0.659950 -6.771323 74.279815 21.852719 -9.005892 -2.117031 -2.600794 -7.994487 2.884533 -62.814295 -0.918670 4.501504 60.961730 2.545997 9.926445 -20.346285 -2.128500 -0.000000 -30.902300 11.237406 1.294836 -5.663228 15.408226 -4.727530 -49.145087 -3.047635 -6.182459 89.483028 -2.549990 -12.992645 -12.534072 0.780200 -0.000001 -21.362301
0.739194 15.599740 0.700677 -7.083946 74.067690 21.457392 -9.057387 -2.085553 -2.703198 -7.893227 3.321315 -62.041372 -0.959588 4.499793 60.970678 2.568976 10.011661 -20.843030 -2.253400 -0.000000 -31.314400 11.141604 1.387775 -5.671050 15.865940 -4.837017 -50.532774 -2.994602 -6.264558 89.476352 -2.469155 -12.399483 -13.037869 0.855300 0.000000 -21.411100
0.874092 15.618662 0.743514 -7.348787 73.883457 21.102351 -9.107762 -2.050337 -2.809986 -7.799807 3.764098 -61.229666 -1.009814 4.493600 60.911880 2.587870 10.071051 -21.341919 -2.376200 0.000001 -31.820600 11.033043 1.477616 -5.681760 16.341465 -4.968007 -51.908162 -2.923928 -6.340466 89.297458 -2.393111 -11.840355 -13.386530 0.891401 0.000000 -21.771800
1.008018 15.638746 0.788258 -7.572541 73.721131 20.780774 -9.157176 -2.011860 -2.919445 -7.707372 4.206745 -60.376193 -1.067036 4.481839 60.785030 2.603178 10.112664 -21.824847 -2.493800 -0.000000 -32.419500 10.912543 1.563804 -5.695716 16.834304 -5.116815 -53.264752 -2.836553 -6.410922 88.963570 -2.335703 -11.387652 -13.652302 0.911900 -0.000001 -22.207701
1.141202 15.659869 0.834719 -7.757381 73.572146 20.493141 -9.205575 -1.970621 -3.029469 -7.611286 4.643307 -59.483743 -1.128744 4.463802 60.591817 2.615136 10.143713 -22.271182 -2.603000 0.000000 -33.094800 10.780962 1.645824 -5.711439 17.342004 -5.276058 -54.601015 -2.732687 -6.476689 88.490168 -2.307537 -11.092017 -13.907979 0.937400 -0.000000 -22.511800
